<?xml version="1.0" encoding="UTF-8" standalone="no"?>
<!DOCTYPE svg PUBLIC "-//W3C//DTD SVG 1.1//EN"
 "http://www.w3.org/Graphics/SVG/1.1/DTD/svg11.dtd">
<!-- Generated by graphviz version 2.40.1 (20161225.0304)
 -->
<!-- Title: numbas_contributors Pages: 1 -->
<svg width="1337pt" height="571pt"
 viewBox="0.00 0.00 1337.07 570.87" xmlns="http://www.w3.org/2000/svg" xmlns:xlink="http://www.w3.org/1999/xlink">
<g id="graph0" class="graph" transform="scale(1 1) rotate(0) translate(4 566.8738)">
<title>numbas_contributors</title>
<polygon fill="#ffffff" stroke="transparent" points="-4,4 -4,-566.8738 1333.0749,-566.8738 1333.0749,4 -4,4"/>
<!-- numbas -->
<g id="node1" class="node">
<title>numbas</title>
<ellipse fill="#b3b3db" stroke="transparent" cx="627.4625" cy="-281.4369" rx="107.7978" ry="63.845"/>
<text text-anchor="middle" x="627.4625" y="-289.2369" font-family="Helvetica,sans-Serif" font-size="26.00" fill="#000000">Numbas</text>
<text text-anchor="middle" x="627.4625" y="-258.0369" font-family="Helvetica,sans-Serif" font-size="26.00" fill="#000000">Resources</text>
</g>
<!-- group1 -->
<g id="node2" class="node">
<title>group1</title>
<polygon fill="transparent" stroke="transparent" points="1210.589,-562.8738 922.589,-562.8738 922.589,-382.8738 1210.589,-382.8738 1210.589,-562.8738"/>
<text text-anchor="start" x="940.1744" y="-502.4738" font-family="Helvetica,sans-Serif" font-weight="bold" font-size="26.00" fill="#000000">Collaborators</text>
<text text-anchor="start" x="940.1744" y="-476.4738" font-family="Helvetica,sans-Serif" font-size="26.00" fill="#000000">&#45; Provide context</text>
<text text-anchor="start" x="940.1744" y="-450.4738" font-family="Helvetica,sans-Serif" font-size="26.00" fill="#000000">&#45; Review content</text>
<text text-anchor="start" x="940.1744" y="-424.4738" font-family="Helvetica,sans-Serif" font-size="26.00" fill="#000000">&#45; Co&#45;design questions</text>
</g>
<!-- group1&#45;&gt;numbas -->
<g id="edge1" class="edge">
<title>group1&#45;&gt;numbas</title>
<path fill="none" stroke="#000000" d="M922.5534,-415.6864C878.7245,-396.8141 822.7417,-371.311 721.8218,-324.8851"/>
<polygon fill="#000000" stroke="#000000" points="723.108,-321.6243 712.5604,-320.624 720.1821,-327.9835 723.108,-321.6243"/>
</g>
<!-- group2 -->
<g id="node3" class="node">
<title>group2</title>
<polygon fill="transparent" stroke="transparent" points="486.0045,-371.4369 -.0015,-371.4369 -.0015,-191.4369 486.0045,-191.4369 486.0045,-371.4369"/>
<text text-anchor="start" x="14" y="-311.0369" font-family="Helvetica,sans-Serif" font-weight="bold" font-size="26.00" fill="#000000">Core MASH and MAST Team</text>
<text text-anchor="start" x="14" y="-285.0369" font-family="Helvetica,sans-Serif" font-size="26.00" fill="#000000">&#45; Design of questions</text>
<text text-anchor="start" x="14" y="-259.0369" font-family="Helvetica,sans-Serif" font-size="26.00" fill="#000000">&#45; Develop resources</text>
<text text-anchor="start" x="14" y="-233.0369" font-family="Helvetica,sans-Serif" font-size="26.00" fill="#000000">&#45; In&#45;house Numbas training and support</text>
</g>
<!-- group2&#45;&gt;numbas -->
<g id="edge2" class="edge">
<title>group2&#45;&gt;numbas</title>
<path fill="none" stroke="#000000" d="M486.4571,-281.4369C493.8482,-281.4369 501.5884,-281.4369 509.709,-281.4369"/>
<polygon fill="#000000" stroke="#000000" points="509.8051,-284.937 519.8051,-281.4369 509.805,-277.937 509.8051,-284.937"/>
</g>
<!-- group3 -->
<g id="node4" class="node">
<title>group3</title>
<polygon fill="transparent" stroke="transparent" points="1329.0608,-180 804.1172,-180 804.1172,0 1329.0608,0 1329.0608,-180"/>
<text text-anchor="start" x="818.1031" y="-106.6" font-family="Helvetica,sans-Serif" font-weight="bold" font-size="26.00" fill="#000000">Casual Workers</text>
<text text-anchor="start" x="818.1031" y="-80.6" font-family="Helvetica,sans-Serif" font-size="26.00" fill="#000000">&#45; Draft questions</text>
<text text-anchor="start" x="818.1031" y="-54.6" font-family="Helvetica,sans-Serif" font-size="26.00" fill="#000000">&#45; Experiment with new formats and designs</text>
</g>
<!-- group3&#45;&gt;numbas -->
<g id="edge3" class="edge">
<title>group3&#45;&gt;numbas</title>
<path fill="none" stroke="#000000" d="M848.2735,-180.1381C815.3404,-195.0366 774.7775,-213.6276 721.8561,-237.9728"/>
<polygon fill="#000000" stroke="#000000" points="720.168,-234.8968 712.5463,-242.2562 723.0939,-241.256 720.168,-234.8968"/>
</g>
</g>
</svg>
