<?xml version="1.0" encoding="UTF-8" standalone="no"?>
<!DOCTYPE svg PUBLIC "-//W3C//DTD SVG 1.1//EN"
 "http://www.w3.org/Graphics/SVG/1.1/DTD/svg11.dtd">
<!-- Generated by graphviz version 2.40.1 (20161225.0304)
 -->
<!-- Title: numbas_contributors Pages: 1 -->
<svg width="487pt" height="241pt"
 viewBox="0.00 0.00 487.00 241.00" xmlns="http://www.w3.org/2000/svg" xmlns:xlink="http://www.w3.org/1999/xlink">
<g id="graph0" class="graph" transform="scale(1 1) rotate(0) translate(4 237)">
<title>numbas_contributors</title>
<polygon fill="#ffffff" stroke="transparent" points="-4,4 -4,-237 483,-237 483,4 -4,4"/>
<!-- MASH -->
<g id="node1" class="node">
<title>MASH</title>
<ellipse fill="#c7ce48" stroke="transparent" cx="95.5936" cy="-113.9078" rx="95.4023" ry="36"/>
<text text-anchor="middle" x="95.5936" y="-108.5078" font-family="Helvetica,sans-Serif" font-size="18.00" fill="#000000">MASH &amp; SAS</text>
</g>
<!-- MAST -->
<g id="node2" class="node">
<title>MAST</title>
<ellipse fill="#c7ce48" stroke="transparent" cx="406.7566" cy="-129.1765" rx="72" ry="36"/>
<text text-anchor="middle" x="406.7566" y="-123.7765" font-family="Helvetica,sans-Serif" font-size="18.00" fill="#000000">MAST</text>
</g>
<!-- MASH&#45;&gt;MAST -->
<g id="edge3" class="edge">
<title>MASH&#45;&gt;MAST</title>
<path fill="none" stroke="#c7ce48" d="M194.4194,-128.7196C262.03,-138.4733 295.6459,-141.7498 327.2953,-140.1205"/>
<polygon fill="#c7ce48" stroke="#c7ce48" points="194.4701,-125.1902 184.0706,-127.2153 193.4632,-132.1174 194.4701,-125.1902"/>
<polygon fill="#c7ce48" stroke="#c7ce48" points="327.8041,-143.594 337.5425,-139.4212 327.3274,-136.6103 327.8041,-143.594"/>
</g>
<!-- dep -->
<g id="node3" class="node">
<title>dep</title>
<polygon fill="transparent" stroke="#b3b3db" points="333.4181,-93.0792 197.3857,-93.0792 197.3857,-.4788 333.4181,-.4788 333.4181,-93.0792"/>
<text text-anchor="middle" x="265.4019" y="-62.979" font-family="Helvetica,sans-Serif" font-size="18.00" fill="#000000">Lecturers</text>
<text text-anchor="middle" x="265.4019" y="-41.379" font-family="Helvetica,sans-Serif" font-size="18.00" fill="#000000">&amp;</text>
<text text-anchor="middle" x="265.4019" y="-19.779" font-family="Helvetica,sans-Serif" font-size="18.00" fill="#000000"> Departments</text>
</g>
<!-- MASH&#45;&gt;dep -->
<g id="edge5" class="edge">
<title>MASH&#45;&gt;dep</title>
<path fill="none" stroke="#b0c4de" stroke-dasharray="5,2" d="M131.9778,-80.4877C147.3635,-68.6877 161.7079,-62.7405 187.2655,-57.8017"/>
<polygon fill="#b0c4de" stroke="#b0c4de" points="187.986,-61.2284 197.2115,-56.0187 186.7508,-54.3382 187.986,-61.2284"/>
</g>
<!-- students -->
<g id="node4" class="node">
<title>students</title>
<polygon fill="transparent" stroke="#b3b3db" points="284.6562,-233.3064 185.5893,-233.3064 185.5893,-161.3064 284.6562,-161.3064 284.6562,-233.3064"/>
<text text-anchor="middle" x="235.1228" y="-191.9064" font-family="Helvetica,sans-Serif" font-size="18.00" fill="#000000">Students</text>
</g>
<!-- MASH&#45;&gt;students -->
<g id="edge1" class="edge">
<title>MASH&#45;&gt;students</title>
<path fill="none" stroke="#000000" d="M129.3968,-156.1393C140.8914,-166.8574 153.5445,-173.3105 175.724,-180.5004"/>
<polygon fill="#000000" stroke="#000000" points="131.6892,-153.4763 122.2071,-148.7496 126.672,-158.3578 131.6892,-153.4763"/>
<polygon fill="#000000" stroke="#000000" points="174.8676,-183.8994 185.4559,-183.5273 176.9466,-177.2152 174.8676,-183.8994"/>
</g>
<!-- MAST&#45;&gt;dep -->
<g id="edge2" class="edge">
<title>MAST&#45;&gt;dep</title>
<path fill="none" stroke="#000000" d="M371.0678,-88.8571C363.512,-82.8056 355.0189,-77.9685 343.306,-73.0153"/>
<polygon fill="#000000" stroke="#000000" points="368.9929,-91.6965 378.7843,-95.7436 373.6538,-86.4738 368.9929,-91.6965"/>
<polygon fill="#000000" stroke="#000000" points="344.2691,-69.6315 333.6837,-69.1829 341.6789,-76.1347 344.2691,-69.6315"/>
</g>
<!-- dep&#45;&gt;students -->
<g id="edge4" class="edge">
<title>dep&#45;&gt;students</title>
<path fill="none" stroke="#000000" d="M272.0383,-103.2111C273.3281,-123.9314 271.3256,-136.9208 264.0766,-151.8937"/>
<polygon fill="#000000" stroke="#000000" points="275.5182,-102.8201 271.2232,-93.1349 268.5409,-103.3846 275.5182,-102.8201"/>
<polygon fill="#000000" stroke="#000000" points="260.8284,-150.5451 259.1875,-161.0121 266.9975,-153.8529 260.8284,-150.5451"/>
</g>
</g>
</svg>
