<?xml version="1.0" encoding="UTF-8" standalone="no"?>
<!DOCTYPE svg PUBLIC "-//W3C//DTD SVG 1.1//EN"
 "http://www.w3.org/Graphics/SVG/1.1/DTD/svg11.dtd">
<!-- Generated by graphviz version 2.40.1 (20161225.0304)
 -->
<!-- Title: numbas_contributors Pages: 1 -->
<svg width="525pt" height="228pt"
 viewBox="0.00 0.00 525.00 228.00" xmlns="http://www.w3.org/2000/svg" xmlns:xlink="http://www.w3.org/1999/xlink">
<g id="graph0" class="graph" transform="scale(1 1) rotate(0) translate(4 224)">
<title>numbas_contributors</title>
<polygon fill="#ffffff" stroke="transparent" points="-4,4 -4,-224 521,-224 521,4 -4,4"/>
<!-- MASH -->
<g id="node1" class="node">
<title>MASH</title>
<ellipse fill="#c7ce48" stroke="transparent" cx="95.4972" cy="-116.8242" rx="95.4023" ry="36"/>
<text text-anchor="middle" x="95.4972" y="-111.4242" font-family="Helvetica,sans-Serif" font-size="18.00" fill="#000000">MASH &amp; SAS</text>
</g>
<!-- dep -->
<g id="node3" class="node">
<title>dep</title>
<polygon fill="transparent" stroke="#b3b3db" points="334.8205,-93.1315 198.7881,-93.1315 198.7881,-.531 334.8205,-.531 334.8205,-93.1315"/>
<text text-anchor="middle" x="266.8043" y="-63.0312" font-family="Helvetica,sans-Serif" font-size="18.00" fill="#000000">Lecturers</text>
<text text-anchor="middle" x="266.8043" y="-41.4312" font-family="Helvetica,sans-Serif" font-size="18.00" fill="#000000">&amp;</text>
<text text-anchor="middle" x="266.8043" y="-19.8312" font-family="Helvetica,sans-Serif" font-size="18.00" fill="#000000"> Departments</text>
</g>
<!-- MASH&#45;&gt;dep -->
<g id="edge4" class="edge">
<title>MASH&#45;&gt;dep</title>
<path fill="none" stroke="#b0c4de" stroke-dasharray="5,2" d="M133.937,-83.6797C148.1254,-73.9751 162.8352,-68.2713 188.7023,-62.2227"/>
<polygon fill="#b0c4de" stroke="#b0c4de" points="189.7636,-65.5718 198.7568,-59.9706 188.2335,-58.741 189.7636,-65.5718"/>
</g>
<!-- students -->
<g id="node4" class="node">
<title>students</title>
<polygon fill="transparent" stroke="#b3b3db" points="323.9482,-220.2934 224.8814,-220.2934 224.8814,-148.2934 323.9482,-148.2934 323.9482,-220.2934"/>
<text text-anchor="middle" x="274.4148" y="-178.8934" font-family="Helvetica,sans-Serif" font-size="18.00" fill="#000000">Students</text>
</g>
<!-- MASH&#45;&gt;students -->
<g id="edge1" class="edge">
<title>MASH&#45;&gt;students</title>
<path fill="none" stroke="#000000" d="M141.7905,-155.6052C159.194,-166.2554 178.0694,-171.1911 214.6138,-176.5201"/>
<polygon fill="#000000" stroke="#000000" points="143.6736,-152.6538 133.4208,-149.9835 139.7705,-158.4647 143.6736,-152.6538"/>
<polygon fill="#000000" stroke="#000000" points="214.4549,-180.0323 224.8456,-177.9626 215.4322,-173.1008 214.4549,-180.0323"/>
</g>
<!-- MAST -->
<g id="node2" class="node">
<title>MAST</title>
<ellipse fill="#c7ce48" stroke="transparent" cx="444.7685" cy="-114.1579" rx="72" ry="36"/>
<text text-anchor="middle" x="444.7685" y="-108.7579" font-family="Helvetica,sans-Serif" font-size="18.00" fill="#000000">MAST</text>
</g>
<!-- MAST&#45;&gt;dep -->
<g id="edge2" class="edge">
<title>MAST&#45;&gt;dep</title>
<path fill="none" stroke="#000000" d="M396.877,-78.3504C383.7745,-71.5126 368.7618,-66.815 344.8678,-61.6203"/>
<polygon fill="#000000" stroke="#000000" points="395.4828,-81.5871 405.892,-83.5621 398.9864,-75.527 395.4828,-81.5871"/>
<polygon fill="#000000" stroke="#000000" points="345.3727,-58.1501 334.8667,-59.5192 343.9334,-65.0005 345.3727,-58.1501"/>
</g>
<!-- dep&#45;&gt;students -->
<g id="edge3" class="edge">
<title>dep&#45;&gt;students</title>
<path fill="none" stroke="#000000" d="M285.7668,-103.3046C289.4214,-117.2447 290.3233,-127.3642 288.7285,-138.2873"/>
<polygon fill="#000000" stroke="#000000" points="289.0012,-101.8874 282.8736,-93.2443 282.2739,-103.8221 289.0012,-101.8874"/>
<polygon fill="#000000" stroke="#000000" points="285.2742,-137.7097 286.6909,-148.2094 292.1311,-139.118 285.2742,-137.7097"/>
</g>
</g>
</svg>
